<svg xmlns="http://www.w3.org/2000/svg" viewBox="0 0 342.67 91"><defs><style>.cls-1,.cls-6,.cls-7{fill:none;}.cls-1{stroke:#182172;}.cls-1,.cls-6{stroke-width:3px;}.cls-2{font-size:48px;}.cls-2,.cls-3{fill:#231815;font-family:ExpoM-HM, Expo M;}.cls-3{font-size:20.73px;}.cls-4{fill:#c41021;}.cls-5{fill:#182172;}.cls-6,.cls-7{stroke:#fff;}</style></defs><g id="레이어_2" data-name="레이어 2"><g id="레이어_1-2" data-name="레이어 1"><path class="cls-1" d="M81.83,45.25A36.08,36.08,0,1,1,45.75,9.17,36.08,36.08,0,0,1,81.83,45.25Z"/><text class="cls-2" transform="translate(96.17 47.83)">인창피엠티</text><text/><text class="cls-3" transform="translate(98.67 80.48) scale(0.67 1)">IN CHANG PUMP MOTOR TECH</text><polygon class="cls-4" points="64.07 45.33 45.67 45.33 81.67 9.42 64.07 45.33"/><polygon class="cls-5" points="45.67 63.76 45.67 45.35 81.58 81.35 45.67 63.76"/><polygon class="cls-5" points="45.65 26.89 45.65 45.29 9.73 9.29 45.65 26.89"/><polygon class="cls-5" points="27.22 45.31 45.63 45.31 9.63 81.23 27.22 45.31"/><path class="cls-6" d="M63.58,45.21a18,18,0,1,1-18-18A18,18,0,0,1,63.58,45.21Z"/><rect class="cls-7" x="0.5" y="0.5" width="341.67" height="90"/></g></g></svg>