<svg xmlns="http://www.w3.org/2000/svg" viewBox="0 0 75.17 75.17"><defs><style>.cls-1,.cls-4{fill:none;stroke-width:3px;}.cls-1{stroke:#182172;}.cls-2{fill:#c41021;}.cls-3{fill:#182172;}.cls-4{stroke:#fff;}</style></defs><g id="레이어_2" data-name="레이어 2"><g id="레이어_1-2" data-name="레이어 1"><path class="cls-1" d="M73.67,37.58A36.09,36.09,0,1,1,37.58,1.5,36.09,36.09,0,0,1,73.67,37.58Z"/><polygon class="cls-2" points="55.91 37.67 37.5 37.67 73.5 1.75 55.91 37.67"/><polygon class="cls-3" points="37.5 56.09 37.5 37.69 73.42 73.69 37.5 56.09"/><polygon class="cls-3" points="37.48 19.22 37.48 37.63 1.56 1.63 37.48 19.22"/><polygon class="cls-3" points="19.05 37.65 37.46 37.65 1.46 73.56 19.05 37.65"/><path class="cls-4" d="M55.42,37.54a18,18,0,1,1-18-18A18,18,0,0,1,55.42,37.54Z"/></g></g></svg>