<svg xmlns="http://www.w3.org/2000/svg" viewBox="0 0 240 165.91"><defs><style>.cls-1,.cls-6{fill:none;stroke-width:3px;}.cls-1{stroke:#182172;}.cls-2{font-size:48px;}.cls-2,.cls-3{fill:#231815;font-family:ExpoM-HM, Expo M;}.cls-3{font-size:20.73px;}.cls-4{fill:#c41021;}.cls-5{fill:#182172;}.cls-6{stroke:#fff;}</style></defs><g id="레이어_2" data-name="레이어 2"><g id="레이어_1-2" data-name="레이어 1"><path class="cls-1" d="M152.21,37.58A36.09,36.09,0,1,1,116.12,1.5,36.09,36.09,0,0,1,152.21,37.58Z"/><text class="cls-2" transform="translate(0 127.96)">인창피엠티</text><text/><text class="cls-3" transform="translate(2.5 160.61) scale(0.67 1)">IN CHANG PUMP MOTOR TECH</text><polygon class="cls-4" points="134.45 37.67 116.04 37.67 152.04 1.75 134.45 37.67"/><polygon class="cls-5" points="116.04 56.09 116.04 37.69 151.96 73.69 116.04 56.09"/><polygon class="cls-5" points="116.02 19.22 116.02 37.63 80.1 1.63 116.02 19.22"/><polygon class="cls-5" points="97.59 37.65 116 37.65 80 73.56 97.59 37.65"/><path class="cls-6" d="M134,37.54a18,18,0,1,1-18-18A18,18,0,0,1,134,37.54Z"/></g></g></svg>